<?xml version="1.0" encoding="UTF-8"?>
<svg version="1.1" xmlns="http://www.w3.org/2000/svg" width="112" height="87">
<path d="M0 0 C36.96 0 73.92 0 112 0 C112 28.71 112 57.42 112 87 C75.04 87 38.08 87 0 87 C0 58.29 0 29.58 0 0 Z " fill="#060606" transform="translate(0,0)"/>
<path d="M0 0 C36.96 0 73.92 0 112 0 C112 28.71 112 57.42 112 87 C75.04 87 38.08 87 0 87 C0 58.29 0 29.58 0 0 Z M32 10 C32 10.66 32 11.32 32 12 C31.443125 12.226875 30.88625 12.45375 30.3125 12.6875 C27.36135146 14.3624762 25.27689973 16.5318646 23 19 C22.03126953 20.03060547 22.03126953 20.03060547 21.04296875 21.08203125 C15.05938998 27.59847047 11.35267512 33.77070653 8 42 C7.4740625 43.16208984 7.4740625 43.16208984 6.9375 44.34765625 C4.81402696 50.3553154 4.93777782 57.56388203 7.625 63.375 C14.30517947 74.42474892 24.51293172 76.65608088 36.5 79.75 C50.25522792 83.07289214 60.71697051 83.03697273 73.19165039 76.13061523 C73.82965576 75.77813721 74.46766113 75.42565918 75.125 75.0625 C75.76880615 74.70422119 76.4126123 74.34594238 77.07592773 73.97680664 C81.42067329 71.63409917 85.55589128 70.13706169 90.375 68.9375 C96.76916818 67.28458578 101.5533215 64.97478758 106 60 C108.87301135 54.02413639 109.240769 45.64277054 107.0859375 39.31640625 C103.63329432 31.95159543 96.15649718 26.57824859 89 23 C85.80604974 22.28598768 85.80604974 22.28598768 83 22 C83 21.34 83 20.68 83 20 C82.23816406 19.63648438 81.47632812 19.27296875 80.69140625 18.8984375 C74.88329046 16.07051595 69.39925242 13.14299731 64.1328125 9.39453125 C53.53422736 2.46468712 42.50642596 3.22166067 32 10 Z " fill="#FBFBFB" transform="translate(0,0)"/>
<path d="M0 0 C1.22203125 0.00386719 2.4440625 0.00773438 3.703125 0.01171875 C6.75 0.3125 6.75 0.3125 8.75 2.3125 C7.70199219 2.28929687 6.65398438 2.26609375 5.57421875 2.2421875 C4.19531963 2.22342697 2.8164128 2.20522707 1.4375 2.1875 C0.74720703 2.17074219 0.05691406 2.15398438 -0.65429688 2.13671875 C-4.42135396 2.10032206 -6.03431704 2.16871136 -9.25 4.3125 C-11.4375 3.9375 -11.4375 3.9375 -13.25 3.3125 C-8.64560747 0.63602029 -5.30804825 -0.07340918 0 0 Z " fill="#5E5E5E" transform="translate(49.25,4.6875)"/>
<path d="M0 0 C0 0.66 0 1.32 0 2 C-0.99 2 -1.98 2 -3 2 C-3 2.66 -3 3.32 -3 4 C-5.44599233 6.88277668 -7.21388773 8.45912682 -11 9 C-11 8.34 -11 7.68 -11 7 C-6.52941176 3 -6.52941176 3 -4 3 C-4 2.34 -4 1.68 -4 1 C-2 0 -2 0 0 0 Z " fill="#4B4B4B" transform="translate(36,9)"/>
</svg>
