<?xml version="1.0" encoding="UTF-8"?>
<svg version="1.1" xmlns="http://www.w3.org/2000/svg" width="155" height="110">
<path d="M0 0 C51.15 0 102.3 0 155 0 C155 36.3 155 72.6 155 110 C103.85 110 52.7 110 0 110 C0 73.7 0 37.4 0 0 Z " fill="#FDFDFD00" transform="translate(0,0)"/>
<path d="M0 0 C4.00266003 2.11588426 7.79787563 4.33378581 11.39453125 7.08984375 C13.68691813 8.7703186 16.05141142 9.9714211 18.60546875 11.21484375 C19.4975 11.65183594 20.38953125 12.08882812 21.30859375 12.5390625 C21.9840625 12.86519531 22.65953125 13.19132812 23.35546875 13.52734375 C23.35546875 14.18734375 23.35546875 14.84734375 23.35546875 15.52734375 C24.34546875 15.75421875 25.33546875 15.98109375 26.35546875 16.21484375 C34.20248322 18.46590649 42.60991008 24.07823779 46.73046875 31.15234375 C49.54397393 37.35377809 48.68584611 43.69553783 47.91796875 50.27734375 C45.50503795 55.29623981 42.20579199 57.8670735 37.35546875 60.52734375 C34.12137187 61.6490956 30.89925035 62.6251899 27.60229492 63.53466797 C21.15909871 65.38507598 15.84454474 68.3683237 10.1484375 71.85546875 C0.5109393 77.62448865 -15.10811005 75.47820954 -25.58984375 72.93212891 C-43.01914812 68.23504346 -43.01914812 68.23504346 -48.51953125 61.58984375 C-49.07382812 60.94144531 -49.628125 60.29304688 -50.19921875 59.625 C-54.30864828 53.66077389 -54.40426855 47.55720219 -53.64453125 40.52734375 C-52.64685778 37.61787234 -51.21439598 35.1590079 -49.64453125 32.52734375 C-49.14953125 31.33109375 -48.65453125 30.13484375 -48.14453125 28.90234375 C-44.23846468 20.11369396 -37.50060383 11.14437093 -29.64453125 5.52734375 C-28.98453125 5.52734375 -28.32453125 5.52734375 -27.64453125 5.52734375 C-27.64453125 4.86734375 -27.64453125 4.20734375 -27.64453125 3.52734375 C-18.91637675 -2.10372367 -9.87164413 -3.9888637 0 0 Z " fill="#ffbf00" transform="translate(78.64453125,22.47265625)"/>
<path d="M0 0 C1.22203125 0.00386719 2.4440625 0.00773437 3.703125 0.01171875 C6.75 0.3125 6.75 0.3125 8.75 2.3125 C7.70199219 2.28929688 6.65398437 2.26609375 5.57421875 2.2421875 C4.19531963 2.22342697 2.8164128 2.20522707 1.4375 2.1875 C0.74720703 2.17074219 0.05691406 2.15398438 -0.65429688 2.13671875 C-4.42135396 2.10032206 -6.03431704 2.16871136 -9.25 4.3125 C-11.4375 3.9375 -11.4375 3.9375 -13.25 3.3125 C-8.64560747 0.63602029 -5.30804825 -0.07340918 0 0 Z " fill="#ffbf00" transform="translate(68.25,20.6875)"/>
<path d="M0 0 C0 0.66 0 1.32 0 2 C-0.99 2 -1.98 2 -3 2 C-3 2.66 -3 3.32 -3 4 C-5.44599233 6.88277668 -7.21388773 8.45912682 -11 9 C-11 8.34 -11 7.68 -11 7 C-6.52941176 3 -6.52941176 3 -4 3 C-4 2.34 -4 1.68 -4 1 C-2 0 -2 0 0 0 Z " fill="#ffbf00" transform="translate(55,25)"/>
</svg>
