<?xml version="1.0" encoding="utf-8"?>
<!-- Generator: Adobe Illustrator 27.5.0, SVG Export Plug-In . SVG Version: 6.00 Build 0)  -->
<svg version="1.1" xmlns="http://www.w3.org/2000/svg" xmlns:xlink="http://www.w3.org/1999/xlink" x="0px" y="0px"
	 viewBox="0 0 500 500" style="enable-background:new 0 0 500 500;" xml:space="preserve">
<g id="BACKGROUND">
	<rect style="fill:#FFFFFF00;" width="500" height="500"/>
	<rect style="fill:#FFFFFF00;" width="500" height="500"/>
</g>
<g id="OBJECTS">
	<g>
		<path style="fill:#ffe4e6;" d="M225.497,97.604c9.789,2.897,20.079,0.209,29.788-1.675c5.085-0.987,10.345-1.923,15.546-1.629
			c2.523,0.142,5.122,0.745,7.271,2.004c-1.963-2.159-4.301-4-6.797-5.399c-4.515-2.531-9.611-3.805-14.701-4.543
			c-4.877-0.707-9.816-0.966-14.74-0.825c-9.305,0.266-18.509,1.984-27.278,5.091C217.336,94.038,221.327,96.37,225.497,97.604z"/>
		<path style="fill:#ffe4e6;" d="M405.375,156.829c-3.676,0.367-7.396,1.507-10.621,3.331c-0.585,1.132-1.295,2.209-2.082,3.207
			c-2.124,2.69-4.7,4.976-7.45,7.006c-4.544,3.355-9.704,5.806-15.049,7.619c0.687,0.021,1.375,0.059,2.065,0.13
			c8.138,0.837,16.056,5.147,21.046,11.651c0.136-0.07,0.271-0.143,0.408-0.211c1.545-0.777,3.051-1.649,4.501-2.59
			c2.838-1.842,5.473-4.003,7.82-6.441c4.215-4.379,7.709-9.648,9.625-15.448c0.755-2.285,1.167-4.688,0.71-6.986
			c-1.776-0.494-3.509-0.992-5.355-1.209C409.141,156.67,407.23,156.644,405.375,156.829z"/>
		<path style="fill:#ffe4e6;" d="M400.927,187.478c0.059,0.007,0.116,0.028,0.173,0.045c0.445-0.398,0.901-0.783,1.363-1.161
			C401.952,186.737,401.452,187.124,400.927,187.478z"/>
		<path style="fill:#ffe4e6;" d="M311.344,134.105c-1.978,1.451-3.697,3.172-5.424,4.906c-1.693,1.699-3.271,3.525-4.709,5.444
			c-1.437,1.917-2.73,3.951-3.87,6.058c-0.485,0.897-0.934,1.814-1.361,2.741c1.179-0.982,2.551-1.731,3.964-2.345
			c2.054-0.893,4.269-1.489,6.497-1.73c8.797-0.951,17.072,3.094,23.294,9.08c0.478,0.46,0.917,0.951,1.372,1.431
			c-1.468-2.027-2.987-4.016-4.558-5.967c-2.965-3.682-6.003-7.388-7.899-11.761c-1.593-3.675-2.025-7.666-1.304-11.548
			C315.251,131.484,313.24,132.713,311.344,134.105z"/>
		<path style="fill:#ffe4e6;" d="M294.92,155.747c0.005-0.003,0.01-0.008,0.015-0.011c2.795-1.746,6.642-1.019,9.651-0.342
			c4.039,0.909,7.978,2.259,11.74,3.987c3.733,1.715,7.279,3.817,10.595,6.24c3.365,2.459,6.384,5.303,9.259,8.312
			c1.529,1.6,3.034,3.227,4.565,4.828c-0.389-0.974-0.775-1.949-1.198-2.901c-1.035-2.33-2.164-4.606-3.46-6.802
			c-4.408-7.469-10.613-14.189-18.964-17.154c-3.766-1.337-7.763-1.712-11.716-1.166c-1.905,0.263-3.773,0.779-5.534,1.552
			c-1.62,0.711-3.112,1.68-4.605,2.623C295.155,155.193,295.044,155.474,294.92,155.747z"/>
		<path style="fill:#ffe4e6;" d="M319.515,130.581c-0.94,4.588,0.128,9.065,2.425,13.082c2.327,4.07,5.485,7.577,8.35,11.263
			c3.894,5.01,7.393,10.315,10.495,15.844c-0.129-0.451-0.268-0.899-0.392-1.35c-2.437-8.831-3.959-17.888-5.921-26.829
			c-0.042-0.189-0.086-0.378-0.128-0.567c0.085-0.156,0.112-0.346,0.085-0.539c-0.161-1.154-0.476-2.279-0.889-3.368
			c-0.073-0.193-0.156-0.381-0.237-0.57c-1.626-6.695-3.638-13.31-6.638-19.519C323.246,121.5,320.501,125.773,319.515,130.581z"/>
		<path style="fill:#ffe4e6;" d="M367.008,126.93c-1.467-3.272-3.245-6.563-5.991-8.944c-2.803-2.431-6.42-3.335-10.072-2.961
			c-7.802,0.799-13.528,6.781-18.138,12.597c0.249,0.768,0.504,1.533,0.734,2.307c0.687,2.312,1.29,4.644,1.843,6.986
			c2.775-2.428,6.551-3.494,10.134-4.18c4.652-0.89,9.676-1.587,14.211,0.184c0.505,0.197,0.99,0.426,1.457,0.683
			c-0.023-0.54,0.291-1.108,0.978-1.181c2.565-0.273,5.155-0.212,7.71,0.122c-0.497-0.227-0.712-0.779-0.633-1.27
			C368.319,129.936,367.665,128.396,367.008,126.93z"/>
		<path style="fill:#ffe4e6;" d="M357.476,148.419c-0.9,0.11-1.871-0.14-2.767-0.3c-0.867-0.154-1.728-0.332-2.601-0.447
			c-1.729-0.227-3.488-0.24-5.226-0.104c-1.793,0.141-3.559,0.504-5.268,1.062c-0.836,0.273-1.656,0.59-2.457,0.953
			c-0.312,0.142-0.686,0.349-1.069,0.492c0.122,0.644,0.247,1.287,0.369,1.931c0.069,0.077,0.144,0.15,0.214,0.226
			c0.103-0.242,0.294-0.454,0.598-0.579c3.773-1.555,8.113-1.731,11.973-0.383c1.856,0.648,3.538,1.613,5.026,2.901
			c1.532,1.326,2.584,2.948,3.537,4.716c0.298,0.553-0.462,1.075-0.826,0.542c-0.994-1.455-2.406-2.658-3.817-3.702
			c-1.367-1.012-2.955-1.862-4.571-2.397c-3.444-1.141-7.151-1-10.51,0.35c1.119,1.084,2.311,2.099,3.559,2.98
			c3.954,2.791,8.737,4.463,13.594,4.496c2.089,0.014,4.972,0.026,6.629-1.464c0.845-0.759,1.192-1.947,0.879-3.042
			c-0.312-1.091-1.28-1.967-2.236-2.521c-0.505-0.293-0.385-1.115,0.239-1.152c1.757-0.102,3.217,1.003,3.908,2.595
			c0.383,0.881,0.459,1.861,0.289,2.798c0.246,2.477-0.115,4.952-1,7.303c-0.683,1.816-1.674,3.498-2.909,4.987
			c2.073-0.998,4.089-2.092,5.933-3.479c1.191-4.42,1.347-9.057,0.788-13.585c-0.492-3.983-1.7-7.972-3.635-11.496
			c-1.917-3.494-4.649-6.614-8.649-7.628c-4.121-1.045-8.67-0.251-12.753,0.641c-3.227,0.705-6.518,1.825-8.764,4.321
			c0.671,3.047,1.266,6.111,1.851,9.178c0.284-0.167,0.573-0.306,0.794-0.417c0.845-0.425,1.71-0.809,2.599-1.135
			c1.794-0.658,3.668-1.093,5.56-1.345c1.912-0.254,3.843-0.24,5.758-0.028c0.943,0.104,1.901,0.246,2.807,0.539
			c0.872,0.281,1.833,0.613,2.469,1.277C358.115,147.832,357.942,148.362,357.476,148.419z"/>
		<path style="fill:#ffe4e6;" d="M342.436,170.139c0.875,3.222,1.823,6.474,2.947,9.642c0.293,0.632,0.59,1.261,0.873,1.898
			c1.527-2.331,3.646-4.164,6.04-5.693c1.392-0.89,2.857-1.655,4.348-2.372c1.284-0.915,2.529-1.88,3.66-2.989
			c2.584-2.533,4.259-5.822,5.026-9.326c-1.798,1.631-4.592,1.965-6.922,1.995c-2.853,0.038-5.708-0.419-8.41-1.333
			c-4.277-1.446-8.243-3.93-11.052-7.431c0.143,0.742,0.284,1.485,0.43,2.226C340.264,161.245,341.237,165.722,342.436,170.139z"/>
		<path style="fill:#ffe4e6;" d="M391.178,161.856c2.165-2.809,3.547-6.171,2.504-9.711c-0.911-3.09-3.01-5.8-5.235-8.073
			c-2.224-2.271-4.78-4.191-7.573-5.705c-5.545-3.006-11.896-4.373-18.181-3.785c2.508,1.859,4.4,4.543,5.757,7.331
			c1.916,3.937,3.089,8.325,3.316,12.703c0.203,3.9-0.296,7.734-1.395,11.451c2.361-2.089,4.319-4.597,5.746-7.409
			c0.716-1.411,1.304-2.883,1.732-4.406c0.437-1.553,0.586-3.243,1.405-4.661c0.245-0.424,0.877-0.397,1.05,0.079
			c0.651,1.796,0.069,3.8-0.467,5.552c-0.542,1.768-1.249,3.486-2.137,5.109c-1.562,2.854-3.629,5.426-6.111,7.531
			c-2.699,2.289-5.877,3.868-9.096,5.288c-1.499,0.661-3.048,1.313-4.588,2.006c-0.458,0.319-0.92,0.631-1.383,0.94
			c-1.841,1.228-3.714,2.415-5.426,3.822c-0.829,0.681-1.609,1.427-2.308,2.242c-0.363,0.422-0.708,0.862-1.012,1.328
			c-0.279,0.427-0.499,0.807-0.872,1.134c0.162,0.131,0.32,0.266,0.482,0.396c1.139-3.476,5.278-4.657,8.544-5.302
			c3.671-0.725,7.315-1.497,10.897-2.591c6.158-1.882,12.135-4.534,17.315-8.399C386.752,166.776,389.186,164.438,391.178,161.856z"
			/>
		<path style="fill:#ffe4e6;" d="M348.143,185.637c2.076,1.61,4.28,3.042,6.633,4.248c7.152,3.666,15.266,5.314,23.279,4.631
			c3.636-0.31,7.216-1.093,10.66-2.297c-0.003-0.152,0.076-0.304,0.266-0.374c0.862-0.319,1.69-0.718,2.507-1.138
			c-1.304-1.591-2.735-3.048-4.323-4.365c-5.703-4.731-13.153-7.323-20.561-7.238c-3.082,0.879-6.215,1.583-9.371,2.133
			C353.839,181.827,350.215,182.646,348.143,185.637z"/>
		<path style="fill:#ffe4e6;" d="M384.74,129.681c-1.87,0.142-3.746,0.412-5.564,0.875c-0.76,0.193-1.529,0.386-2.294,0.594
			c6.057,0.961,11.944,2.863,17.49,5.53c4.166,2.004,8.172,4.411,11.932,7.144c-0.081-0.219-0.161-0.438-0.244-0.654
			c-0.437-1.146-0.848-2.301-1.31-3.439c-0.891-2.196-1.767-4.398-2.681-6.585c-0.05-0.017-0.097-0.016-0.147-0.042
			c-1.888-0.971-3.861-1.782-5.906-2.358C392.341,129.712,388.543,129.393,384.74,129.681z"/>
		<path style="fill:#ffe4e6;" d="M370.046,128.299c0.378,0.768,0.784,1.521,1.264,2.236c1.021,0.06,2.038,0.15,3.051,0.265
			c1.633-0.879,3.263-1.654,5.09-2.156c7.03-1.93,14.805-1.323,21.449,1.725c-2.662-6.236-5.737-12.657-11.067-16.96
			c-1.964-1.586-4.194-2.729-6.55-3.546c-0.03,0.025-0.045,0.057-0.08,0.08C376.737,114.182,371.889,120.741,370.046,128.299z"/>
		<path style="fill:#ffe4e6;" d="M370.113,117.278c0.269,1.848,0.383,3.717,0.334,5.584c-0.013,0.496-0.06,0.99-0.091,1.485
			c0.801-2.567,1.925-5.006,3.429-7.304c1.95-2.98,4.4-5.697,7.256-7.845c-0.741-0.19-1.488-0.362-2.241-0.501
			c-2.069-0.38-4.167-0.596-6.267-0.714c-1.699-0.095-3.405-0.081-5.105-0.139c0.365,0.92,0.699,1.848,0.998,2.785
			C369.211,112.77,369.779,114.98,370.113,117.278z"/>
		<path style="fill:#ffe4e6;" d="M351.787,93.469c-3.074,0.293-6.024,1.362-9.039,1.976c-3.121,0.636-6.278,1.037-9.447,1.339
			c-6.104,0.582-12.272,0.821-18.295,2.047c-5.637,1.147-11.129,3.157-15.64,6.811c-4.126,3.343-7.219,7.842-9.449,12.623
			c-5.34,11.448-5.167,24.27-4.97,36.626c0.197,12.331,0.483,25.521-4.577,37.033c0.122-0.158,0.249-0.312,0.37-0.471
			c0.721-0.95,1.409-1.925,2.058-2.926c2.292-3.53,4.279-7.297,5.809-11.22c0.76-1.948,1.374-3.987,1.871-6.017
			c0.503-2.054,1.051-4.144,1.339-6.239c0.048-0.349,0.64-0.308,0.62,0.044c-0.142,2.471-0.302,4.865-0.823,7.293
			c-0.917,4.265-2.279,8.492-4.196,12.418c-0.953,1.951-2.066,3.821-3.285,5.617c-0.64,0.943-1.302,1.869-1.997,2.772
			c-0.466,0.605-0.942,1.413-1.611,1.835c0.457,0.436,0.901,0.885,1.324,1.357c2.889,3.227,4.716,7.086,4.987,11.44
			c0.245,3.937-0.462,7.925-1.22,11.81c0.913,0.193,1.84,0.325,2.752,0.537c1.021,0.237,2.051,0.431,3.085,0.603
			c2.011,0.334,4.041,0.533,6.079,0.582c6.943,0.166,14.015-1.252,20.168-4.525c2.887-1.535,5.642-3.345,8.16-5.433
			c1.227-1.018,2.394-2.108,3.499-3.256c0.932-0.968,1.761-2.001,2.597-3.04c-3.357-1.729-6.413-4.006-8.934-6.884
			c-3.623-4.135-6.14-9.033-8.416-14.001c-2.268-4.952-4.307-10.034-7.078-14.737c-1.371-2.327-2.927-4.58-4.751-6.578
			c-1.091-1.195-2.283-2.275-3.639-3.163c-1.345-0.881-3.053-1.682-4.682-1.712c-0.283-0.005-0.438-0.212-0.45-0.424
			c-0.077,0.056-0.162,0.092-0.237,0.153c-0.018,0.014-0.035,0.018-0.053,0.028c-0.443,2.141-0.814,4.295-1.092,6.46
			c-0.06,0.468-0.745,0.305-0.707-0.147c0.381-4.477,1.067-8.884,2.099-13.256c1.803-7.644,4.85-15.088,8.733-21.907
			c1.947-3.418,4.113-6.719,6.508-9.84c1.218-1.586,2.635-2.907,4.131-4.222c1.472-1.295,2.461-3.042,4.137-4.128
			c0.282-0.182,0.725,0.151,0.519,0.466c-1.188,1.815-3.01,3.08-4.213,4.885c-0.611,0.916-1.184,1.86-1.799,2.776
			c-0.618,0.92-1.335,1.773-1.994,2.664c-6.457,8.717-11.44,18.644-14.528,29.098c0.288-0.609,0.588-1.213,0.902-1.809
			c2.323-4.404,5.399-8.574,9.093-11.928c1.848-1.677,3.884-3.191,5.939-4.604c2.013-1.385,4.127-2.605,6.321-3.679
			c0.069-0.244,0.123-0.49,0.202-0.733c1.553-4.794,4.527-9.03,8.207-12.438c0.462-0.427,1.381-0.551,1.729,0.132
			c1.582,3.104,2.916,6.318,4.078,9.595c2.571-3.16,5.38-6.17,8.751-8.485c6.339-4.352,15.213-5.757,21.502-0.536
			c2.665,2.212,4.516,5.217,6.019,8.309c0.054-0.569,0.116-1.137,0.14-1.708c0.061-1.465,0.031-2.931-0.057-4.394
			c-0.335-2.245-0.97-4.437-1.728-6.574c-0.964-2.72-2.085-5.361-3.358-7.951c-1.242-2.528-2.432-5.256-4.125-7.519
			c-0.821-1.098-1.879-1.992-3.176-2.471C354.623,93.36,353.174,93.337,351.787,93.469z"/>
		<path style="fill:#ffe4e6;" d="M302.999,229.814c10.831,0.465,21.634-1.404,31.717-5.376c8.71-3.431,16.781-8.406,23.725-14.682
			c0.024-0.178,0.083-0.348,0.219-0.472c0.356-0.323,0.712-0.646,1.068-0.97c-6.743,1.113-13.689,1.328-20.345-0.383
			c-1.894-0.487-3.738-1.138-5.519-1.919c-1.106,1.436-2.416,2.771-3.71,4.026c-1.362,1.32-2.808,2.558-4.325,3.697
			c-5.498,4.131-12.082,6.897-18.828,8.18c-3.644,0.693-7.374,0.924-11.076,0.689c-1.827-0.116-3.655-0.319-5.453-0.669
			c-0.946-0.184-1.902-0.383-2.828-0.653c-0.758-0.221-1.465-0.537-2.184-0.843c-0.086,0.437-0.172,0.873-0.257,1.307
			c-0.2,1.028-0.413,2.054-0.63,3.08c-0.063,0.163-0.119,0.327-0.15,0.501c-0.088,0.49-0.096,0.991,0.163,1.433
			c0.029,0.049,0.071,0.089,0.118,0.123c0,0.039-0.006,0.077-0.005,0.116C290.749,228.328,296.788,229.547,302.999,229.814z"/>
		<path style="fill:#ffe4e6;" d="M357.751,206.423c-0.435-0.135-0.872-0.259-1.302-0.413c-7.897-2.833-14.286-8.622-20.124-14.456
			c-6.627-6.623-13.168-13.333-19.77-19.981c-2.991-3.011-6.027-6.012-9.406-8.592c-1.625-1.241-3.331-2.316-5.108-3.257
			c0.643,0.53,1.254,1.101,1.826,1.687c2.143,2.199,3.943,4.688,5.507,7.324c2.808,4.733,4.881,9.845,7.181,14.831
			c2.22,4.812,4.703,9.659,8.317,13.591c4.39,4.777,10.27,7.736,16.59,9.019C346.831,207.266,352.341,207.179,357.751,206.423z"/>
		<path style="fill:#ffe4e6;" d="M340.733,93.6c2.78-0.527,5.488-1.317,8.26-1.888c2.954-0.608,6.21-0.885,8.94,0.66
			c-0.425-0.914-0.892-1.806-1.441-2.655c-2.208-3.419-5.233-6.157-8.602-8.393c-0.072,0.352-0.196,0.707-0.269,1.033
			c-0.16,0.721-0.361,1.431-0.6,2.129c-0.466,1.361-1.052,2.673-1.785,3.912C344.057,90.393,342.536,92.16,340.733,93.6z"/>
		<path style="fill:#ffe4e6;" d="M322.294,82.838c0.372,2.308,0.525,4.655,0.489,6.993c-0.018,1.216-0.078,2.428-0.207,3.637
			c-0.064,0.601-0.143,1.201-0.238,1.797c-0.016,0.099-0.031,0.201-0.046,0.302c5.555-0.589,11.147-0.83,16.675-1.664
			c2.03-1.778,3.762-3.881,5.017-6.273c0.652-1.243,1.175-2.55,1.54-3.906c0.172-0.637,0.33-1.289,0.419-1.943
			c0.079-0.578,0.016-1.078,0.266-1.518c-0.939-0.56-1.891-1.095-2.861-1.587c-3.007-1.522-6.144-2.767-9.304-3.931
			c-2.97-1.094-5.953-2.21-9.027-2.978c-2.273-0.568-4.639-0.939-6.984-0.821c0.992,1.626,1.847,3.308,2.509,5.114
			C321.347,78.26,321.921,80.527,322.294,82.838z"/>
		<path style="fill:#ffe4e6;" d="M260.357,37.616c4.232,4.848,8.411,9.741,12.516,14.697c3.743,4.519,7.251,9.19,9.636,14.587
			c3.632,8.218,4.697,17.584,3.14,26.443c0.43-1.042,0.9-2.071,1.344-3.095c0.854-1.97,1.723-3.93,2.522-5.924
			c1.585-3.958,2.948-8.009,3.828-12.187c1.301-6.181,1.748-12.914-0.896-18.821c-2.643-5.903-8.451-9.283-14.05-11.94
			c-8.308-3.941-17.299-7.023-25.174-11.837c0.018,0.02,0.036,0.04,0.054,0.06C255.653,32.257,258.012,34.93,260.357,37.616z"/>
		<path style="fill:#ffe4e6;" d="M283.89,80.505c-0.563-5.151-2.03-10.247-4.355-14.883c-2.63-5.244-6.384-9.809-10.056-14.345
			c-3.982-4.918-8.002-9.807-12.081-14.645c-1.203-1.427-2.431-2.838-3.657-4.25c1.324,2.331,2.501,4.745,3.495,7.235
			c2.156,5.399,3.514,11.13,3.967,16.928c0.252,3.226,0.197,6.502,0.821,9.69c0.557,2.848,1.779,5.459,3.397,7.853
			c3.23,4.782,7.674,8.557,11.218,13.085c2.656,3.393,4.993,7.434,5.583,11.749c0.05-0.072,0.097-0.147,0.148-0.219
			c-0.097-0.204-0.149-0.425-0.082-0.647C284.004,92.373,284.535,86.404,283.89,80.505z"/>
		<path style="fill:#ffe4e6;" d="M282.251,102.827c-0.037,0.279-0.213,0.506-0.443,0.654c-3.008,4.716-5.565,9.709-7.478,15.009
			c-2.177,6.033-3.49,12.456-3.574,18.878c-0.066,5.057,0.74,9.993,1.944,14.863c0.003,0.004,0.006,0.008,0.009,0.012
			c0.126,0.195,0.152,0.386,0.139,0.567c0.297,1.17,0.609,2.337,0.944,3.5c3.067,10.64,7.034,21.787,5.474,32.916
			c0.12-0.318,0.252-0.632,0.364-0.952c4.587-13.04,3.409-27.003,3.444-40.568c0.031-12.157,1.131-24.952,7.753-35.502
			c3.018-4.809,7.111-8.891,12.158-11.547c5.337-2.809,11.281-4.109,17.225-4.854c0.038-0.316,0.125-0.634,0.184-0.943
			c0.099-0.519,0.189-1.039,0.266-1.561c0.165-1.11,0.295-2.234,0.347-3.356c0.105-2.265-0.031-4.533-0.365-6.775
			c-0.619-4.154-1.963-8.323-3.802-12.118c-0.376,0.047-0.752,0.107-1.126,0.183c-2.714,0.553-5.204,1.836-7.466,3.403
			c-2.323,1.609-4.415,3.513-6.462,5.453c-2.319,2.197-4.588,4.447-6.785,6.767c-4.678,4.94-9.038,10.239-12.749,15.942
			C282.253,102.81,282.252,102.818,282.251,102.827z"/>
		<path style="fill:#ffe4e6;" d="M270.83,188.464c2.337,1.243,4.666,2.588,6.81,4.166c0.255-1.266,0.454-2.54,0.546-3.83
			c0.275-3.835-0.056-7.587-0.728-11.29c-2.155-0.812-4.246-1.8-6.446-2.52c-2.266-0.741-4.657-1.209-7.004-1.607
			c-2.396-0.406-4.806-0.763-7.233-0.918c-2.394-0.153-4.803-0.159-7.198-0.012c-1.178,0.072-2.354,0.182-3.525,0.331
			c-0.646,0.082-1.291,0.176-1.934,0.281c-0.586,0.096-1.114,0.227-1.706,0.089c-0.214-0.05-0.382-0.165-0.506-0.311
			c-0.263,1.671-0.585,3.331-0.95,4.97c-0.01,0.046-0.038,0.074-0.052,0.116c5.662,0.432,11.253,2.017,16.538,4.142
			C262.03,183.915,266.466,186.143,270.83,188.464z"/>
		<path style="fill:#ffe4e6;" d="M263.828,121.07c1.22,1.572,2.25,3.265,3.216,5.002c0.48,0.862,0.925,1.746,1.326,2.648
			c0.21,0.474,0.432,0.955,0.597,1.447c0.054,0.16,0.086,0.324,0.122,0.486c0.676-5.004,2.012-9.912,3.842-14.621
			c-0.141,0.074-0.313,0.089-0.498-0.019c-1.875-1.092-3.722-2.194-5.742-3.005c-1.941-0.779-3.983-1.338-6.041-1.702
			c-3.311-0.586-6.695-0.621-10.039-0.292c1.458,0.605,2.874,1.299,4.228,2.125C258.264,115.226,261.365,117.898,263.828,121.07z"/>
		<path style="fill:#ffe4e6;" d="M247.503,111.422c-3.588,0.585-7.181,1.5-10.587,2.772c-2.96,1.105-5.911,2.622-7.995,5.059
			c-2.056,2.404-2.669,5.201-2.42,8.031c1.829-0.151,3.748,0.098,5.55,0.322c1.975,0.246,3.938,0.607,5.874,1.07
			c6.887,1.646,13.734,4.491,19.631,8.427c4.434,2.959,8.544,6.609,11.959,10.772c-0.935-5.254-1.16-10.552-0.579-15.874
			c-0.098-0.019-0.19-0.079-0.241-0.199c-0.219-0.517-0.55-0.986-0.781-1.5c-0.239-0.531-0.477-1.059-0.737-1.58
			c-0.466-0.933-0.972-1.848-1.526-2.733c-2.006-3.203-4.803-6.105-7.745-8.458c-2.985-2.388-6.349-4.293-9.945-5.596
			C247.698,111.84,247.559,111.646,247.503,111.422z"/>
		<path style="fill:#ffe4e6;" d="M237.439,146.901c1.999,2.985,3.518,6.232,4.314,9.745c1.101,4.863,1.016,9.861,0.351,14.783
			c0.624-0.422,1.386-0.472,2.114-0.586c0.684-0.107,1.369-0.201,2.057-0.282c1.415-0.166,2.836-0.277,4.259-0.332
			c4.949-0.191,10.019,0.238,14.807,1.535c2.385,0.646,4.696,1.5,6.995,2.399c1.136,0.444,2.261,0.917,3.368,1.429
			c0.539,0.25,1.044,0.508,1.534,0.79c-1.622-8.109-4.772-15.998-6.756-24.011c-2.016-2.917-4.206-5.654-6.752-8.151
			c-4.966-4.869-10.815-8.992-17.18-11.813c-3.251-1.441-6.669-2.49-10.146-3.225c-1.705-0.36-3.427-0.639-5.158-0.837
			c-1.548-0.177-3.12-0.195-4.667-0.382c0.491,3.617,2.316,7.242,4.329,10.13C232.999,141.092,235.403,143.861,237.439,146.901z"/>
		<path style="fill:#ffe4e6;" d="M210.598,201.498c1.587,1.487,3.71,2.425,5.907,1.99c0.207-0.041,0.375,0.033,0.484,0.151
			c0.073-0.009,0.146-0.011,0.219-0.021c3.092-2.622,6.405-4.962,10.08-6.762c3.882-1.902,8.064-3.223,12.389-3.56
			c4.821-0.376,9.593,0.597,14.074,2.345c4.417,1.722,8.609,4.164,12.386,7.022c3.583,2.712,6.78,6.002,9.082,9.88
			c4.112,6.924,5.388,15.113,4.867,23.067c0.245-0.907,0.49-1.814,0.723-2.724c1.236-4.822,2.191-9.702,3.019-14.609
			c0.72-4.267,1.623-8.814,0.604-13.109c-0.935-3.936-3.474-7.227-6.531-9.787c-3.553-2.976-7.775-5.059-11.885-7.144
			c-4.279-2.171-8.637-4.241-13.186-5.786c-8.344-2.834-17.661-4.007-26.121-0.97c-3.824,1.372-7.369,3.39-10.941,5.299
			c-3.17,1.694-6.496,3.482-10.024,4.329c0.484,1.47,0.909,2.959,1.412,4.425C207.917,197.749,208.862,199.872,210.598,201.498z"/>
		<path style="fill:#ffe4e6;" d="M272.904,257.672c1.053-2.997,2.092-5.997,2.903-9.083c1.195-4.545,2.064-9.233,2.252-13.937
			c0.015-0.369,0.021-0.739,0.027-1.109c-0.793,0.236-1.807,0.016-2.586-0.032c-1.12-0.069-2.242-0.134-3.364-0.172
			c-2.203-0.075-4.462-0.169-6.658,0.051c-3.807,0.382-7.75,1.71-10.666,4.272c-0.012,0.011-0.026,0.014-0.039,0.023
			c-0.017,0.233-0.024,0.466-0.045,0.699c1.401,0.243,2.696,1.198,3.896,1.888l4.325,2.489c2.369,1.363,4.807,2.745,6.614,4.84
			c3.051,3.537,3.223,8.135,2.107,12.416C272.072,259.244,272.441,258.419,272.904,257.672z"/>
		<path style="fill:#ffe4e6;" d="M221.128,343.99c-5.453,0.564-11.228,0.98-16.443-1.056c-4.99-1.948-7.985-6.295-10.157-10.985
			c-0.538-1.161-1.032-2.341-1.519-3.525c-0.275-0.669-0.538-1.357-0.717-2.062c-1.016-1.999-1.951-4.045-2.872-6.065
			c-1.551-3.404-2.985-6.858-4.375-10.331c-4.84-12.102-8.877-24.503-13.612-36.645c-1.753-4.495-3.675-8.919-5.763-13.259
			c-0.565-0.64-0.835-1.495-1.171-2.269c-0.347-0.796-0.74-1.565-1.143-2.334c-0.408-0.779-0.842-1.539-1.317-2.281
			c-0.264-0.412-0.528-0.828-0.796-1.24c-0.087-0.05-0.165-0.128-0.221-0.243c-0.056-0.115-0.116-0.225-0.173-0.339
			c-0.097-0.142-0.189-0.289-0.289-0.428c-0.056-0.078-0.063-0.16-0.05-0.239c-1.889-3.655-4.265-6.94-7.611-9.382
			c-0.343,0.881-0.663,1.77-0.928,2.679c-1.476,5.067-1.731,10.441-0.802,15.633c0.928,5.181,3.165,9.899,6.215,14.158
			c3.031,4.232,6.647,7.996,9.975,11.988c3.383,4.059,6.328,8.419,8.212,13.382c1.966,5.178,2.91,10.662,4.026,16.066
			c1.06,5.131,2.347,10.204,4.579,14.966c2.108,4.5,5.066,8.679,9.021,11.735c4.395,3.396,9.937,5.074,15.442,5.335
			c7.544,0.358,14.642-1.726,21.422-4.693C227.123,343.244,224.12,343.681,221.128,343.99z"/>
		<path style="fill:#ffe4e6;" d="M171.876,344.768c0.979,3.394,2.774,6.464,4.523,9.506c1.532,2.665,2.931,5.386,4.242,8.165
			c1.144-3.544,2.925-6.894,5.246-9.801c1.38-1.728,2.964-3.277,4.706-4.639c0.84-0.657,1.738-1.246,2.656-1.787
			c0.456-0.268,0.941-0.572,1.447-0.819c-1.804-1.053-3.489-2.317-5.012-3.791c-3.726-3.608-6.404-8.157-8.334-12.941
			c-0.565-1.402-1.053-2.827-1.491-4.265c-0.219,0.044-0.443,0.019-0.635-0.099c-0.119,0.066-0.239,0.129-0.356,0.198
			c-0.435,0.253-0.861,0.525-1.259,0.833c-0.047,0.036-0.093,0.074-0.14,0.111c-0.019,0.083-0.032,0.167-0.057,0.249
			c-0.999,3.414-3.509,5.935-5.054,9.067C170.809,337.892,170.925,341.468,171.876,344.768z"/>
		<path style="fill:#ffe4e6;" d="M200.925,249.757c0.152-0.182,0.365-0.332,0.677-0.393c4.263-0.833,8.575-1.606,12.934-1.569
			c3.899,0.033,7.873,0.76,11.346,2.435c-1.721-2.048-3.564-3.975-5.848-5.422c-3.108-1.969-6.734-2.708-10.34-1.856
			c-3.507,0.829-6.547,2.823-8.913,5.515c-0.451,0.513-0.864,1.048-1.26,1.592c0.136-0.048,0.262-0.113,0.407-0.148
			C200.26,249.831,200.592,249.786,200.925,249.757z"/>
		<path style="fill:#ffe4e6;" d="M205.724,250.66c0.14,0.057,0.282,0.112,0.42,0.172c2.336,1.01,4.545,2.384,6.706,3.719
			c2.296,1.419,4.536,2.924,6.776,4.429c6.326,4.25,13.112,8.785,20.539,10.881c-1.368-0.98-2.554-2.265-3.51-3.624
			c-1.983-2.821-3.208-6.098-5.163-8.937c-1.926-2.798-4.651-4.784-7.799-6.019C217.939,249.025,211.709,249.57,205.724,250.66z"/>
		<path style="fill:#ffe4e6;" d="M220.251,242.7c0.123-0.062,0.265-0.106,0.432-0.12c3.857-0.331,7.974,0.442,11.621,1.663
			c4.689,1.571,9.014,4.12,12.639,7.454c-0.033-0.646,0.009-1.307,0.098-1.969c-0.29-1.176-0.608-2.346-1.021-3.48
			c-0.601-1.65-1.263-3.283-1.956-4.896c-1.372-3.192-2.921-6.425-5.022-9.21c-1.898-2.515-4.45-4.126-7.655-4.234
			c-3.274-0.11-6.518,0.811-9.687,1.509c-5.72,1.261-11.761,2.635-16.35,6.507c-4.566,3.852-7.091,9.627-8.516,15.303
			c-0.519,2.069-0.902,4.172-1.174,6.29c0.166-0.567,0.343-1.132,0.539-1.692c2.621-7.506,8.53-14.221,16.79-15.18
			C214.469,240.242,217.551,241.095,220.251,242.7z"/>
		<path style="fill:#ffe4e6;" d="M195.45,273.393c1.386,0.751,2.788,1.469,4.206,2.157c2.876,1.395,5.816,2.651,8.83,3.721
			c4.902,1.74,10.234,3.241,15.585,3.77c-3.874-1.786-6.804-4.919-8.434-8.913c-0.998-2.445-1.582-5.034-2.575-7.481
			c-0.881-2.172-2.015-4.218-3.439-6.083c-2.8-3.665-6.618-6.469-10.917-8.118c-1.157,1.026-1.724,2.679-2.131,4.139
			c-0.945,3.386-1.777,6.799-2.714,10.182c-0.19,1.582-0.331,3.161-0.445,4.715c-0.004,0.052-0.03,0.087-0.044,0.132
			c-0.004,0.035-0.002,0.069-0.006,0.104c-0.005,0.041-0.022,0.07-0.033,0.107C193.809,272.535,194.855,273.071,195.45,273.393z"/>
		<path style="fill:#ffe4e6;" d="M183.802,274.285c-0.613,0.042-1.224,0.116-1.835,0.189c0.027,0.013,0.056,0.021,0.083,0.034
			c1.816,0.875,3.446,2.107,5.006,3.371c1.642,1.331,3.297,2.643,5,3.895c3.359,2.468,6.863,4.734,10.481,6.803
			c7.247,4.144,14.96,7.501,22.952,9.916c7.731,2.336,16.33,4.475,24.202,1.542c1.687-0.629,3.276-1.488,4.704-2.586
			c1.04-0.799,3.031-2.545,1.98-4.013c-0.854-1.192-2.841-1.363-4.149-1.627c-2.23-0.45-4.46-0.9-6.69-1.35
			c-4.505-0.909-9.01-1.818-13.514-2.727c-2.23-0.45-4.46-0.9-6.691-1.349c-2.219-0.447-4.48-0.756-6.573-1.635
			c-0.067-0.028-0.101-0.084-0.152-0.126c-0.367-0.101-0.736-0.19-1.098-0.32c-0.563-0.202-1.12-0.422-1.669-0.66
			c-0.147-0.064-0.302-0.135-0.456-0.201c-4.048-1.003-8.023-2.346-11.857-3.936c-2.873-1.191-5.675-2.541-8.381-4.075
			c-0.248-0.14-0.514-0.284-0.781-0.433c-0.219,0.12-0.491,0.168-0.718,0.113C190.429,274.329,187.104,274.06,183.802,274.285z"/>
		<path style="fill:#ffe4e6;" d="M211.634,259.621c1.364,1.835,2.529,3.874,3.325,6.021c0.891,2.402,1.467,4.909,2.363,7.31
			c0.804,2.152,1.931,4.123,3.61,5.711c1.535,1.451,3.386,2.557,5.38,3.254c4.114,1.44,8.734,1.15,12.597-0.898
			c3.371-1.787,6.191-4.55,8.131-7.827c-5.244-0.256-10.316-1.877-15.032-4.169c-4.707-2.288-9.017-5.275-13.306-8.251
			c-4.175-2.896-8.368-6.031-12.983-8.203c-1.171-0.551-2.522-1.054-3.86-1.121C205.703,253.347,209.073,256.175,211.634,259.621z"
			/>
		<path style="fill:#ffe4e6;" d="M250.498,268.648c0.704-1.54,0.664-3.246,0.206-4.853c-0.871-3.057-2.884-5.889-4.978-8.24
			c-2.071-2.324-4.482-4.359-7.134-5.99c-2.654-1.632-5.528-2.909-8.535-3.729c-2.307-0.629-4.597-0.916-6.937-1.043
			c2.38,2.076,4.394,4.704,6.041,7.432c1.351,1.025,2.569,2.248,3.604,3.693c2.014,2.812,3.213,6.094,5.079,8.994
			c1.855,2.883,4.561,5.627,8.135,5.991c0.057,0.006,0.104,0.023,0.144,0.048c0.786,0.064,1.577,0.1,2.376,0.099
			C249.365,270.465,250.04,269.652,250.498,268.648z"/>
		<path style="fill:#ffe4e6;" d="M252.604,238.538c0.078-0.799,0.141-1.599,0.17-2.402c0.299-8.148-1.625-16.346-5.747-23.4
			c-0.97-1.661-2.131-3.433-3.806-4.462c-1.885-1.158-3.987-0.914-6.036-0.369c-4.044,1.076-8.082,2.196-12.117,3.307
			c-7.947,2.189-15.924,4.833-22.374,10.158c-6.201,5.119-10.746,12.282-12.638,20.102c-0.987,4.079-1.315,8.306-0.956,12.486
			c0.294,3.42,1.013,6.888,2.12,10.171c-0.004-1.525,0.041-3.05,0.164-4.569c0.314-3.881,1.042-7.756,2.221-11.468
			c1.925-6.061,5.219-11.85,10.67-15.376c5.314-3.437,11.72-4.59,17.796-5.944c3.432-0.765,7.16-1.526,10.607-0.417
			c3.131,1.008,5.41,3.395,7.128,6.119c2.775,4.399,4.711,9.307,5.949,14.364c0.442-1.249,1.02-2.439,1.667-3.47
			C248.594,241.503,250.371,239.241,252.604,238.538z"/>
		<path style="fill:#ffe4e6;" d="M249.778,196.562c-4.28-1.235-8.718-1.531-13.101-0.685c-4.086,0.788-7.989,2.457-11.541,4.6
			c-6.508,3.926-11.745,9.425-16.78,15.049c6.298-3.346,13.31-5.215,20.165-7.093c2.114-0.579,4.228-1.163,6.326-1.798
			c2.186-0.661,4.436-1.382,6.746-1.037c4.359,0.651,6.834,5.134,8.606,8.706c0.89,1.795,1.651,3.645,2.292,5.531
			c1.139-2.477,2.897-4.726,4.768-6.649c2.126-2.185,4.632-3.882,7.252-5.412c0.674-0.393,1.375-0.729,2.092-1.039
			c0.222-0.096,0.481-0.208,0.739-0.271c-1.57-1.407-3.259-2.685-5.006-3.841C258.465,200.063,254.251,197.853,249.778,196.562z"/>
		<path style="fill:#ffe4e6;" d="M178.509,273.352c1.653-0.456,3.347-0.789,5.053-0.968c2.639-0.276,5.297-0.203,7.914,0.194
			c-0.03-0.057-0.048-0.125-0.036-0.213c0.049-0.35,0.108-0.697,0.164-1.045c0-0.004,0.001-0.008,0.002-0.012
			c0.032-0.201,0.063-0.403,0.095-0.605c-0.356-1.403-0.403-2.921-0.451-4.365c-0.44-0.876-0.863-1.76-1.264-2.654
			c-1.783-3.971-2.508-8.55-2.603-12.877c-0.097-4.396,0.54-8.792,1.95-12.959c2.608-7.705,7.59-14.547,14.173-19.331
			c-0.071-0.283-0.032-0.596,0.213-0.884c0.779-0.915,1.555-1.832,2.348-2.735c1.99-2.266,4.042-4.512,6.183-6.666
			c-1.297,0.459-2.617,0.86-3.907,1.293c-2.849,0.956-5.71,1.871-8.576,2.771c-4.116,1.293-8.362,2.618-11.853,5.245
			c-3.784,2.848-5.82,7.172-6.814,11.712c-1.126,5.144-1.008,10.492-1.115,15.728c-0.008,0.39-0.02,0.78-0.028,1.17
			c0.938,9.636,1.086,19.42-3.551,27.966C177.088,273.822,177.781,273.552,178.509,273.352z"/>
		<path style="fill:#ffe4e6;" d="M187.861,215.683c3.672-2.665,8.072-4.123,12.302-5.633c2.573-0.919,5.153-1.812,7.743-2.681
			c1.679-0.563,3.43-1.064,5.086-1.749c-1.956,0.118-3.933,0.013-5.892-0.18c-3.793-0.374-7.548-1.058-11.347-1.381
			c-3.175-0.27-6.599-0.337-9.62,0.819c-3.055,1.169-4.862,3.809-5.94,6.789c-2.486,6.871-2.269,14.529-1.617,21.694
			c0.123,1.346,0.269,2.712,0.422,4.087c0.076-3.524,0.329-7.049,1.283-10.439C181.551,222.499,184.039,218.457,187.861,215.683z"/>
		<path style="fill:#ffe4e6;" d="M175.215,276.132c-0.134,0.206-0.314,0.319-0.504,0.387c2.148,5.36,4.151,10.781,6.108,16.219
			c2.251,6.259,4.465,12.535,6.973,18.697c1.235,3.036,2.529,6.048,3.905,9.022c0.34,0.733,0.692,1.461,1.049,2.185
			c0.004-0.006,0.007-0.012,0.01-0.018c-0.167-0.23-0.142-0.591,0.215-0.72c0.273-0.099,0.554-0.168,0.829-0.26
			c0.36-0.207,0.735-0.316,1.112-0.349c3.211-0.954,6.538-1.498,9.869-1.838c6.973-0.713,14.053-1.16,20.453-4.292
			c2.845-1.393,5.56-3.16,7.936-5.259c1.227-1.084,2.38-2.253,3.445-3.497c0.555-0.649,1.087-1.318,1.593-2.007
			c0.247-0.336,0.47-0.668,0.717-0.979c-4.997-0.333-9.994-1.671-14.688-3.171c-8.37-2.676-16.416-6.316-23.925-10.885
			c-3.757-2.286-7.382-4.796-10.845-7.507c-1.687-1.321-3.309-2.72-4.97-4.074c-1.413-1.152-2.912-2.224-4.566-2.999
			c-0.373,0.069-0.748,0.119-1.118,0.202c-1.121,0.25-2.254,0.471-3.365,0.765C175.369,275.88,175.296,276.007,175.215,276.132z"/>
		<path style="fill:#ffe4e6;" d="M253.693,324.671c4.129-4.185,8.267-8.362,12.369-12.575c4.102-4.213,8.266-8.365,12.351-12.594
			c3.64-3.768,7.389-7.96,8.354-13.29c0.831-4.59-1.136-8.987-4.467-12.107c-3.825-3.583-8.945-5.158-13.969-6.184
			c-0.022-0.005-0.035-0.018-0.056-0.023c-0.692,1.25-1.419,2.482-2.151,3.705c-1.408,2.353-2.931,4.652-4.622,6.813
			c-1.699,2.17-3.557,4.215-5.617,6.047c-1.982,1.762-4.227,3.541-6.728,4.488c-0.005,0.002-0.009,0.001-0.013,0.003
			c0.551,0.111,1.102,0.222,1.654,0.333c1.889,0.38,4.015,0.583,5.735,1.521c1.6,0.872,2.62,2.534,2.165,4.385
			c-0.482,1.956-2.17,3.376-3.757,4.47c-1.593,1.098-3.372,1.946-5.207,2.552c-2.813,0.929-5.702,1.294-8.606,1.284
			c-0.003,0.021,0.001,0.041-0.003,0.062c-0.219,0.989-0.882,1.766-1.482,2.563c-0.535,0.711-1.097,1.402-1.685,2.07
			c-1.239,1.408-2.594,2.702-4.03,3.908c-2.846,2.388-6.007,4.205-9.371,5.555c4.9-1.003,9.709-2.377,14.35-4.307
			c3.072-1.278,6.038-2.817,8.817-4.649c1.364-0.899,2.682-1.869,3.94-2.912c0.662-0.549,1.298-1.124,1.941-1.694
			c0.598-0.529,1.175-1.113,1.887-1.48c0.458-0.237,0.98,0.175,0.754,0.677c-0.385,0.857-1.093,1.545-1.768,2.187
			c-0.696,0.663-1.423,1.291-2.17,1.895c-1.443,1.168-2.963,2.242-4.538,3.226c-5.939,3.709-12.552,6.076-19.364,7.58
			c-6.625,1.463-13.342,2.334-20.103,2.745c-3.014,0.242-6.034,0.443-9.028,0.818c-1.372,0.554-3.004,0.785-3.84,2.138
			c-0.914,1.48-0.254,3.423,0.393,4.96c0.104,0.218,0.214,0.433,0.317,0.652c0.022,0.047,0.02,0.09,0.033,0.136
			c0.774,1.744,1.66,3.441,2.631,5.082c0.521,0.882,1.067,1.726,1.682,2.547c0.403,0.539,0.897,1.148,1.169,1.804
			c1.077,0.853,2.259,1.568,3.55,2.085c2.375,0.951,4.977,1.264,7.518,1.326c2.606,0.064,5.212-0.147,7.803-0.41
			c2.506-0.254,5.012-0.58,7.481-1.085c5.034-1.029,9.853-2.758,14.09-5.71C246.409,332.268,250.022,328.392,253.693,324.671z"/>
		<path style="fill:#ffe4e6;" d="M252.131,285.554c1.1-0.885,2.168-1.818,3.181-2.8c2.037-1.973,3.867-4.144,5.549-6.425
			c3.07-4.163,5.753-8.787,7.724-13.573c1.865-4.526,2.688-10.352-1.073-14.184c-1.815-1.848-4.153-3.063-6.375-4.342
			c-1.325-0.763-2.649-1.525-3.974-2.288c-1.008-0.58-2.285-1.637-3.522-1.436c-1.096,0.178-1.998,1.055-2.72,1.836
			c-0.839,0.907-1.551,1.911-2.13,3.003c-0.595,1.123-1.048,2.306-1.337,3.544c-0.293,1.255-0.359,2.532-0.512,3.807
			c-0.036,0.302-0.173,0.503-0.357,0.622c0.883,0.933,1.732,1.9,2.504,2.935c2.138,2.867,4.111,6.375,3.835,10.069
			c-0.16,2.133-1.24,4.403-3.018,5.623c0.045,0.221,0.028,0.461-0.087,0.698c-0.419,0.864-0.907,1.683-1.426,2.478
			c0.823-0.785,1.608-1.608,2.346-2.468c1.736-2.022,3.235-4.231,4.52-6.565c1.301-2.364,2.309-4.888,3.638-7.233
			c0.295-0.52,1.076-0.24,0.979,0.345c-0.525,3.196-2.07,6.248-3.71,9.007c-1.612,2.713-3.517,5.268-5.737,7.514
			c-3.637,3.679-8.118,6.607-13.09,8.112c-2.412,0.73-4.91,1.114-7.428,1.25c6.262,1.26,12.525,2.52,18.788,3.78
			c-0.178-0.189-0.192-0.551,0.051-0.749C249.847,287.222,251.028,286.441,252.131,285.554z"/>
		<path style="fill:#ffe4e6;" d="M271.814,211.332c-0.994-1.349-2.11-2.605-3.309-3.779c-0.2,0.384-0.742,0.644-1.136,0.795
			c-0.691,0.264-1.365,0.569-2.048,0.853c-2.752,1.146-5.212,3.149-7.3,5.243c-2.042,2.047-3.564,4.402-5.089,6.824
			c1.514,4.989,2.171,10.215,1.904,15.439c1.27-1.181,2.623-2.158,4.225-2.898c1.84-0.851,3.809-1.496,5.793-1.905
			c2.327-0.48,4.637-0.749,7.014-0.717c1.209,0.016,2.415,0.075,3.621,0.158c0.761,0.052,1.812-0.008,2.597,0.297
			C277.931,224.437,276.135,217.195,271.814,211.332z"/>
		<path style="fill:#ffe4e6;" d="M189.725,176.58c2.205,3.868,3.641,7.95,4.49,12.317c0.822,4.229,0.851,8.857-0.164,13.067
			c1.181,0.056,2.36,0.162,3.524,0.296c3.388,0.391,6.744,1.03,10.135,1.398c1.137,0.123,2.278,0.188,3.42,0.223
			c-3.039-1.577-4.922-4.91-6.069-8.13c-0.782-2.197-1.415-4.447-2.345-6.59c-0.873-2.012-1.972-3.926-3.238-5.716
			c-3.102-4.388-7.216-7.876-11.914-10.236c0.067,0.096,0.137,0.195,0.203,0.289C188.472,174.492,189.122,175.522,189.725,176.58z"
			/>
		<path style="fill:#ffe4e6;" d="M167.103,180.842c4.297,5.405,7.189,12.048,8.675,18.766c0.86,3.89,1.356,7.849,1.61,11.822
			c0.039,0.62,0.065,1.24,0.094,1.861c0.527-1.959,1.254-3.864,2.324-5.551c1.763-2.78,4.375-4.604,7.592-5.314
			c1.545-0.342,3.124-0.479,4.708-0.496c-0.005-0.08-0.021-0.153-0.006-0.242c0.392-2.373,0.687-4.693,0.704-7.103
			c0.03-4.224-0.593-8.366-1.952-12.365c-0.684-2.012-1.514-4-2.56-5.852c-0.511-0.905-1.06-1.788-1.649-2.644
			c-0.329-0.478-0.703-0.941-1.056-1.416c-3.112-1.311-6.438-2.153-9.871-2.448c-2.482-0.214-5.003-0.114-7.465,0.251
			c-2.165,0.321-4.399,0.837-6.342,1.88c-0.956,0.513-1.797,1.144-2.509,1.89C162.371,175.703,164.935,178.115,167.103,180.842z"/>
		<path style="fill:#ffe4e6;" d="M157.749,199.402c2.426,1.013,4.611,2.536,6.61,4.234c1.851,1.573,3.539,3.333,5.051,5.233
			c1.529,1.921,3,3.869,4.167,6.037c0.746,1.385,1.395,2.81,1.954,4.272c0.009-0.791,0.021-1.582,0.019-2.373
			c-0.005-2.167-0.063-4.334-0.196-6.497c-0.441-7.191-1.707-14.481-4.689-21.085c-2.624-5.81-6.77-10.848-11.912-14.596
			c-0.52,0.686-0.945,1.454-1.255,2.313c-0.862,2.389-0.932,5.038-0.876,7.55C156.732,189.48,157.621,194.416,157.749,199.402z"/>
		<path style="fill:#ffe4e6;" d="M158.088,242.363c0.33,0.528,0.718,1.006,1.043,1.538c0.288,0.471,0.569,0.946,0.82,1.438
			c0.519,1.019,1.04,2.036,1.542,3.063c0.518,1.06,1.035,2.12,1.552,3.18c0.271,0.556,0.549,1.103,0.726,1.675
			c0.76,1.327,1.499,2.669,2.211,4.029c2.944,5.625,5.539,11.401,7.937,17.26c3.973-6.924,4.78-15.116,4.365-22.967
			c-0.354-6.708-1.487-13.345-1.992-20.039c-0.117-0.617-0.226-1.235-0.348-1.85c-0.26-1.305-0.404-2.626-0.655-3.933
			c-0.02-0.104,0.007-0.184,0.058-0.243c-0.019-0.114-0.031-0.23-0.052-0.344c-0.235-1.302-0.559-2.592-0.943-3.858
			c-1.346-4.432-3.454-8.849-6.405-12.441c-1.5-1.826-3.191-3.5-5.021-4.995c-1.631-1.333-3.393-2.49-5.156-3.638
			c0.001,0.082,0.006,0.163,0.006,0.245c0.009,5.464-0.877,10.867-1.631,16.263c-1.186,8.483-2.002,17.59,1.766,25.481
			C157.978,242.249,158.042,242.289,158.088,242.363z"/>
		<path style="fill:#ffe4e6;" d="M122.702,268.374c1.933,2.923,4.458,5.368,6.625,8.107c0.093,0.089,0.182,0.182,0.274,0.273
			c0.162,0.255,0.321,0.51,0.478,0.769c0.629,1.038,1.315,2.046,2.022,3.031c0.611,0.851,1.215,1.711,1.836,2.558
			c0.858,1.655,1.606,3.376,2.403,5.051c4.179,8.789,8.88,17.666,16.869,23.59c1.86,1.379,3.887,2.544,6.019,3.448
			c2.271,0.962,4.666,1.584,7.058,2.165c4.37,1.062,8.888,2.016,12.803,4.299c-0.769-2.948-1.378-5.941-1.981-8.932
			c-1.115-5.526-2.281-11.169-4.813-16.251c-4.791-9.616-13.729-16.318-18.939-25.664c-5.291-9.491-5.959-21.262-1.625-31.248
			c0.076-0.175,0.248-0.309,0.442-0.392c0.005-0.013-0.001-0.028,0.006-0.041c0.082-0.16,0.309-0.299,0.493-0.236
			c0.077,0.026,0.153,0.052,0.232,0.071c-0.052,0.007-0.037,0.011,0.046,0.01c0.046-0.002,0.09,0.006,0.133,0.022
			c0.144,0.025,0.277,0.046,0.419,0.088c0.129,0.038,0.258,0.073,0.388,0.108c0.071,0.019,0.434,0.158,0.208,0.067
			c0.058,0.023,0.12,0.041,0.179,0.06c0.04,0.013,0.08,0.026,0.12,0.039c-0.032,0.003-0.063,0.005-0.095,0.008
			c0.15-0.009,0.291,0.021,0.425,0.088c-0.107-0.037-0.116-0.041-0.027-0.01c0.051,0.016,0.103,0.032,0.154,0.049
			c-2.28-7.262-1.631-15.191-0.681-22.731c-0.661-2.64-1.738-5.16-3.371-7.371c-2.354-3.188-5.745-5.513-9.562-6.584
			c-3.399-0.954-7.145-1.036-10.499,0.151c-3.328,1.178-5.653,3.741-6.719,7.09c-1.228,3.859-0.908,7.928-0.718,11.909
			c0.202,4.221,0.063,8.433-0.376,12.636c-0.436,4.179-1.153,8.322-1.997,12.436c-0.768,3.74-1.641,7.53-1.514,11.372
			C119.537,262.03,120.712,265.363,122.702,268.374z"/>
		<path style="fill:#ffe4e6;" d="M76.725,272.619c8.945-3.608,18.542-4.994,28.14-4.002c4.72,0.488,9.384,1.549,13.839,3.185
			c2.142,0.787,4.248,1.728,6.263,2.802c-0.911-0.609-1.823-1.215-2.755-1.794c-2.456-1.523-4.996-2.873-7.626-4.072
			c-9.064-4.134-19.6-5.842-29.368-3.375c-7.373,1.862-14.184,6.089-18.795,12.14c0.762-0.409,1.529-0.81,2.3-1.2
			C71.345,274.977,74.001,273.718,76.725,272.619z"/>
		<path style="fill:#ffe4e6;" d="M72.979,281.726c2.527,0.579,5.076,1.07,7.643,1.433c4.447,0.628,9.035,0.694,13.423-0.369
			c3.123-0.756,6.063-2.07,9.03-3.302c0.208-0.12,0.415-0.242,0.623-0.361c3.686-2.095,7.629-3.504,11.841-4.063
			c1.714-0.228,3.441-0.298,5.166-0.238c-1.461-0.587-2.942-1.122-4.443-1.598c-8.709-2.766-18.022-3.492-27.038-1.965
			c-4.716,0.799-9.271,2.303-13.654,4.2c-2.296,0.994-4.546,2.09-6.769,3.236c-0.984,0.508-1.973,1.007-2.967,1.497
			c1.167,0.155,2.304,0.454,3.46,0.69C70.53,281.138,71.751,281.445,72.979,281.726z"/>
		<path style="fill:#ffe4e6;" d="M69.01,317.428c5.41-11.06,13.547-20.769,23.426-28.104c4.662-3.461,9.715-6.411,15.041-8.727
			c1.365-0.593,2.75-1.142,4.147-1.657c-2.465,0.6-4.881,1.395-7.266,2.34c-0.34,0.135-0.681,0.268-1.022,0.402
			c-0.379,0.203-0.757,0.408-1.134,0.615c-3.517,1.933-7.144,3.781-11.203,4.155c-4.29,0.395-8.577-0.627-12.751-1.557
			c-1.071,1.15-2.166,2.277-3.175,3.483c-1.273,1.521-2.475,3.109-3.547,4.779c-4.05,6.309-6.491,13.478-7.531,20.883
			c-0.56,3.989-0.713,8.024-0.563,12.047c0.067,1.786,0.204,3.569,0.382,5.348c0.348-1.412,0.75-2.811,1.208-4.19
			C66.135,323.89,67.457,320.603,69.01,317.428z"/>
		<path style="fill:#ffe4e6;" d="M118.673,278.34c-4.235,1.331-8.403,2.86-12.396,4.821c-10.397,5.106-19.598,12.315-26.76,21.445
			c-3.825,4.875-7.01,10.223-9.579,15.859c-1.271,2.79-2.38,5.653-3.302,8.577c-0.469,1.49-0.921,2.985-1.352,4.486
			c-0.282,0.983-0.539,1.96-0.84,2.927c0.11-0.14,0.211-0.289,0.331-0.418c0.507-0.548,1.04-1.073,1.593-1.575
			c1.119-1.018,2.329-1.94,3.602-2.757c2.541-1.629,5.266-2.975,8.019-4.204c4.923-2.198,10.014-4.169,14.457-7.281
			c5.311-3.721,8.725-9.176,11.344-15.005c2.929-6.519,4.962-13.452,8.595-19.643C114.003,282.811,115.986,280.141,118.673,278.34z"
			/>
		<path style="fill:#ffe4e6;" d="M131.242,282.072c-0.278-0.519-0.585-1.044-0.907-1.565c-0.018-0.021-0.041-0.028-0.057-0.051
			c-0.583-0.766-1.349-1.302-2.195-1.693c-0.151,0.043-0.309,0.049-0.466,0.001c-0.614-0.185-1.231-0.267-1.846-0.304
			c-0.46,0.03-0.919,0.098-1.377,0.208c-4.621,1.116-7.373,5.37-8.166,9.822c-0.499,2.8-0.344,5.664-0.073,8.481
			c0.272,2.821,0.666,5.631,1.02,8.443c0.608,4.827,1.159,9.687,1.143,14.557c0.206-0.241,0.416-0.481,0.628-0.722
			c0.829-0.945,1.678-1.869,2.59-2.736c1.601-1.523,3.261-3.104,5.099-4.339c1.871-1.256,3.848-2.362,5.893-3.306
			c2.064-0.952,4.202-1.74,6.391-2.351c1.098-0.306,2.21-0.565,3.329-0.781c0.469-0.091,0.997-0.228,1.527-0.312
			c-0.937-1.211-1.826-2.459-2.657-3.739c-2.751-4.239-4.984-8.801-7.005-13.425C133.202,286.174,132.317,284.082,131.242,282.072z"
			/>
		<path style="fill:#ffe4e6;" d="M151.225,371.99c-0.098-2.346-0.091-4.699,0.037-7.044c0.45-8.206,2.709-16.388,7.489-23.152
			c2.41-3.41,5.463-6.334,8.383-9.299c3.114-3.163,6.165-6.408,9.364-9.485c0.015-0.015,0.033-0.018,0.049-0.031
			c0.006-0.054,0.021-0.106,0.026-0.16c-4.111-1.973-8.716-2.726-13.112-3.914c-4.712-1.273-8.998-3.301-12.811-6.37
			c-1.944-1.565-3.718-3.329-5.343-5.224c-0.458,0.195-0.981,0.215-1.476,0.294c-0.6,0.095-1.198,0.204-1.792,0.327
			c-1.164,0.241-2.317,0.533-3.456,0.873c-4.146,1.238-7.939,3.149-11.591,5.443c-1.829,1.149-3.573,2.331-5.201,3.76
			c-0.815,0.716-1.618,1.452-2.361,2.243c-0.388,0.412-0.761,0.831-1.142,1.241c-0.008,0.263-0.008,0.526-0.019,0.79
			c-0.12,2.786-0.453,5.548-1.04,8.274c-0.565,2.626-1.3,5.212-1.904,7.829c-1.141,4.947-1.681,10.013,0.421,14.787
			c1.886,4.283,5.365,7.706,8.924,10.636c7.892,6.5,17.085,11.653,27.064,14.047C151.341,375.944,151.304,373.897,151.225,371.99z"
			/>
		<path style="fill:#ffe4e6;" d="M187.002,379.582c-3.946-5.962-6.63-12.976-9.809-19.284c-3.153-6.259-7.884-12.31-8.05-19.608
			c-0.04-1.757,0.198-3.506,0.788-5.163c0.598-1.679,1.557-3.164,2.57-4.618c0.534-0.768,1.105-1.556,1.649-2.366
			c-2.111,2.135-4.248,4.245-6.354,6.379c-2.791,2.828-5.582,5.677-7.934,8.891c-2.368,3.236-4.15,6.911-5.356,10.729
			c-1.217,3.85-1.913,7.865-2.163,11.893c-0.129,2.087-0.115,4.183-0.018,6.271c0.082,1.776,0.358,3.579,0.367,5.362
			c0.362,0.08,0.723,0.166,1.087,0.238c5.774,1.152,11.666,1.465,17.539,1.617c5.082,0.132,10.165,0.217,15.248,0.312
			C186.623,379.969,186.783,379.742,187.002,379.582z"/>
		<path style="fill:#ffe4e6;" d="M152.484,388.468c-4.168,3.495-5.896,8.712-7.438,13.741c-2.428,7.918-5.398,15.645-8.919,23.123
			c1.402-1.846,2.742-3.738,3.965-5.708c1.395-2.248,2.677-4.569,3.845-6.943c1.139-2.314,2.133-4.694,3.238-7.024
			c1.092-2.304,2.297-4.557,3.825-6.605c1.504-2.016,3.353-3.711,5.448-5.097c4.378-2.895,9.44-4.625,14.276-6.579
			c2.754-1.112,5.516-2.2,8.26-3.339l4.053-1.682c0.01-0.004,0.021-0.009,0.032-0.013c-2.586-0.045-5.174-0.082-7.76-0.134
			c-3.193,0.146-6.384,0.336-9.545,0.824C161.024,383.763,156.206,385.347,152.484,388.468z"/>
		<path style="fill:#ffe4e6;" d="M165.048,405.486c0.705-1.07,1.511-2.395,2.555-3.274c1.469-1.91,3.127-3.677,4.866-5.341
			c2.704-2.588,5.604-4.961,8.338-7.518c1.334-1.248,2.644-2.527,3.865-3.886c0.887-0.988,1.719-2.02,2.556-3.049l-1.482-0.029
			c-0.862,0.39-1.742,0.746-2.612,1.117c-1.515,0.646-3.03,1.292-4.544,1.938c-3.032,1.293-6.038,2.648-9.057,3.972
			c-4.644,2.036-9.6,3.883-13.568,7.125c-3.945,3.223-6.112,7.83-8.1,12.401c-2.089,4.802-4.373,9.435-7.284,13.801
			c-1.474,2.21-3.05,4.352-4.738,6.403c-0.827,1.005-1.675,1.997-2.563,2.95c-0.383,0.412-0.771,0.81-1.171,1.193
			c-0.081,0.151-0.161,0.301-0.243,0.452c0.27-0.04,0.542-0.079,0.805-0.119c0.98-0.151,1.961-0.287,2.938-0.458
			c1.882-0.33,3.748-0.745,5.586-1.266c3.257-0.923,6.425-2.219,9.224-4.145c2.918-2.009,5.186-4.684,6.989-7.716
			c1.88-3.162,3.316-6.559,4.969-9.84C163.19,408.585,164.055,406.996,165.048,405.486z"/>
		<path style="fill:#ffe4e6;" d="M172.221,463.69c5.303-13.725,9.48-27.797,12.358-42.229c1.426-7.154,2.536-14.372,3.319-21.625
			c0.367-3.398,0.773-6.832,0.802-10.254c0.018-1.995-0.157-4.002-0.759-5.881c-1.703,2.819-4.229,5.253-6.57,7.447
			c-3.015,2.826-6.196,5.475-9.059,8.462c-2.518,2.628-4.808,5.514-6.315,8.849c-1.624,3.592-1.936,7.493-2.11,11.382
			c-0.178,3.975-0.4,7.906-1.65,11.714c-1.228,3.74-3.039,7.306-3.742,11.205c-1.346,7.462,1.246,14.943,1.928,22.336
			c0.597,6.472,0.452,13.196,2.635,19.38c1.449-3.172,3.039-6.284,4.458-9.47C169.18,471.274,170.749,467.5,172.221,463.69z"/>
		<path style="fill:#ffe4e6;" d="M195.462,404.217c-1.647-4.551-3.372-9.167-4.631-13.882c-0.124,3.835-0.58,7.679-1.029,11.485
			c-1.749,14.852-4.947,29.475-9.399,43.748c-2.22,7.117-4.784,14.13-7.712,20.986c-1.466,3.432-3.02,6.824-4.634,10.189
			c-1.103,2.299-2.212,4.612-3.435,6.858c0.055-0.033,0.107-0.07,0.162-0.103c6.909-4.099,13.851-8.336,19.829-13.747
			c5.958-5.393,10.739-11.959,13.695-19.455c2.924-7.415,4.085-15.54,3.288-23.472C200.81,419.009,198.118,411.556,195.462,404.217z
			"/>
		<path style="fill:#ffe4e6;" d="M226.428,423.592c-8.356-4.089-15.919-9.794-22.225-16.628c-3.139-3.401-5.99-7.093-8.441-11.02
			c-0.871-1.396-1.718-2.833-2.506-4.305c1.531,5.254,3.513,10.389,5.33,15.537c0.999,2.831,1.952,5.693,2.762,8.59
			c0.185,0.072,0.363,0.186,0.508,0.402c1.656,2.473,3.537,4.587,5.976,6.321c4.417,3.142,9.788,4.709,15.128,5.274
			c3.197,0.338,6.397,0.429,9.609,0.296c1.57-0.065,3.135-0.209,4.705-0.255c0.084-0.003,0.168-0.005,0.253-0.008
			c-1.21-0.289-2.405-0.638-3.579-1.049C231.379,425.85,228.87,424.786,226.428,423.592z"/>
		<path style="fill:#ffe4e6;" d="M229.971,408.625c-2.08-3.028-4.583-5.748-7.379-8.128c-2.8-2.384-5.946-4.386-9.26-5.977
			c-0.662-0.317-1.337-0.605-2.014-0.889c-4.65-0.301-9.236-1.4-13.371-3.598c-2.391-1.271-4.439-2.856-6.253-4.649
			c0.001,0.007,0.003,0.013,0.005,0.02c0.748,1.464,1.496,2.928,2.302,4.362c1.244,2.214,2.571,4.381,4.001,6.481
			c5.083,7.463,11.527,14.005,18.892,19.226c3.666,2.599,7.584,4.865,11.66,6.756c2.14,0.993,4.333,1.906,6.57,2.657
			c1.315,0.442,2.654,0.821,4.018,1.081c0.154,0.029,0.309,0.048,0.464,0.072c-1.911-2.281-3.251-5.019-4.491-7.727
			C233.584,414.969,232.061,411.666,229.971,408.625z"/>
		<path style="fill:#ffe4e6;" d="M231.462,379.045c-0.353-5.507-1.2-11.116-2.791-16.409c-0.794-2.642-1.737-5.24-2.816-7.78
			c-1.054-2.48-2.297-4.871-3.385-7.335c-5.797,1.67-11.805,2.383-17.921,1.376c-2.98-0.491-5.854-1.431-8.513-2.789
			c-0.623,0.487-1.37,0.851-2.013,1.284c-0.859,0.579-1.676,1.211-2.477,1.867c-1.599,1.308-3.054,2.808-4.348,4.417
			c-2.627,3.266-4.468,7.054-5.334,11.156c-0.01,0.048-0.037,0.077-0.052,0.12c2.131,4.648,4.216,9.34,7.061,13.601
			c0.489,0.733,1.009,1.437,1.547,2.123c0.247,0.108,0.449,0.316,0.525,0.633c3.226,3.905,7.271,6.956,12.205,8.574
			c0.646,0.212,1.3,0.381,1.955,0.549c0.668,0.102,1.335,0.255,1.992,0.439c5.654,1.079,11.526,0.708,17.161-0.448
			c2.446-0.502,4.884-1.106,7.298-1.804c-0.008-0.052-0.031-0.095-0.029-0.151C231.63,385.323,231.664,382.187,231.462,379.045z"/>
		<path style="fill:#ffe4e6;" d="M272.511,354.441c-0.23-0.292-0.391-0.63-0.584-0.997c-0.293-0.557-0.601-1.107-0.916-1.651
			c-0.593-1.026-1.229-2.023-1.899-3c-2.455-3.577-5.341-6.797-8.499-9.766c-3.048-2.866-6.452-5.222-9.931-7.518
			c-0.207,0.197-0.411,0.397-0.617,0.594c-0.354,0.158-0.67,0.435-0.983,0.662c-0.499,0.362-0.997,0.726-1.495,1.09
			c-1.029,0.75-2.055,1.503-3.069,2.274c-0.976,0.743-1.978,1.461-2.924,2.24c-0.472,0.389-0.935,0.787-1.41,1.173
			c-0.238,0.193-0.477,0.383-0.712,0.579c-0.045,0.037-0.078,0.077-0.115,0.116c-0.338,0.188-0.675,0.379-1.017,0.561
			c-4.788,2.552-9.83,4.889-15.047,6.478c1.777,2.489,3.093,5.284,4.292,8.089c4.353,10.187,6.775,21.541,5.977,32.647
			c3.363-1.052,6.672-2.283,9.878-3.683c5.745-2.508,11.275-5.74,15.929-9.969c5.154-4.683,8.984-10.511,11.838-16.832
			C271.666,356.509,272.095,355.478,272.511,354.441z"/>
		<path style="fill:#ffe4e6;" d="M309.379,402.653c-0.224-0.556-0.371-1.126-0.649-1.66c-0.081-0.155-0.068-0.301-0.01-0.42
			c-0.573-0.871-1.16-1.732-1.721-2.612c-1.113-1.748-2.313-3.434-3.48-5.145c-8.319-12.195-19.42-22.466-32.287-29.713
			c-0.107-0.06-0.177-0.14-0.251-0.217c-0.083,0.151-0.158,0.307-0.242,0.457c-0.943,1.692-1.981,3.315-3.095,4.877
			c1.125,3.503,2.543,6.898,4.46,10.054c4.165,6.857,10.084,12.461,16.693,16.942c6.847,4.643,14.349,8.173,21.874,11.572
			c-0.165-0.82-0.366-1.645-0.645-2.439C309.824,403.776,309.607,403.216,309.379,402.653z"/>
		<path style="fill:#ffe4e6;" d="M315.288,353.619c-6.998,2.287-14.077,4.367-21.302,5.811c-5.541,1.107-11.145,1.876-16.779,1.885
			c0.909,0.335,1.814,0.681,2.725,1.01c2.049,0.739,4.09,1.496,6.166,2.159c4.15,1.325,8.402,2.356,12.72,2.951
			c7.425,1.023,15.043,0.637,22.195-1.697c6.693-2.185,12.796-5.88,18.199-10.358c8.373-6.94,14.831-15.683,20.613-24.847
			c-1.678,1.639-3.444,3.189-5.29,4.633C343.059,344.141,328.987,349.143,315.288,353.619z"/>
		<path style="fill:#ffe4e6;" d="M354.79,322.355c-4.434,0.065-8.864-0.282-13.28-0.628c-13.664-1.07-29.19-1.882-39.679,8.61
			c-5.171,5.172-8.616,11.702-12.973,17.512c-3.721,4.965-8.344,9.617-14.22,11.852c0.15,0.12,0.302,0.238,0.453,0.356
			c7.143-0.392,14.24-1.355,21.206-3.012c7.084-1.685,14.024-3.921,20.897-6.31c6.829-2.374,13.657-4.79,20.218-7.844
			c6.239-2.904,12.223-6.427,17.518-10.842c2.543-2.12,4.909-4.469,7.032-7.01c1.022-1.223,1.99-2.495,2.88-3.817
			c-1.146,0.31-2.304,0.568-3.509,0.714C359.164,322.199,356.977,322.323,354.79,322.355z"/>
		<path style="fill:#ffe4e6;" d="M303.652,381.509c-2.476-3.48-5.66-6.281-9.293-8.505c-3.746-2.294-7.777-4.062-11.71-6.001
			c-1.947-0.959-3.875-1.961-5.73-3.088c-0.922-0.56-1.823-1.153-2.703-1.776c-0.446-0.315-0.912-0.636-1.36-0.978
			c-0.185-0.009-0.37-0.017-0.555-0.033c-0.145-0.012-0.233-0.091-0.29-0.189c-0.021,0.041-0.044,0.08-0.064,0.121
			c0.095,0.024,0.187,0.036,0.286,0.092c3.724,2.098,7.309,4.441,10.729,7.005c6.029,4.519,11.501,9.743,16.349,15.508
			c2.418,2.875,4.745,5.896,6.725,9.092c0.993,1.603,1.956,3.239,2.808,4.922c0.81,1.598,1.474,3.259,2.219,4.888
			c-0.401-3.212-0.999-6.396-1.922-9.505C307.919,388.953,306.144,385.01,303.652,381.509z"/>
		<path style="fill:#ffe4e6;" d="M257.077,334.253c3.72,2.518,7.058,5.447,9.995,8.85c1.479,1.714,2.859,3.506,4.118,5.388
			c0.617,0.922,1.215,1.858,1.785,2.809c0.142,0.236,0.302,0.479,0.461,0.729c1.828-5.006,3.192-10.194,4.175-15.416
			c1.354-7.193,1.907-14.512,1.682-21.825c-0.21,0.095-0.415,0.196-0.629,0.286c-5.399,2.251-11.711,3.031-16.732,6.129
			c-0.199,0.249-0.446,0.464-0.702,0.699c-0.473,0.431-0.948,0.858-1.423,1.286c-0.883,0.794-1.766,1.589-2.65,2.383
			c-1.738,1.564-3.457,3.153-5.219,4.691c-0.212,0.211-0.414,0.433-0.628,0.642c0.928,0.398,1.829,0.82,2.704,1.352
			C255.059,332.888,256.067,333.569,257.077,334.253z"/>
		<path style="fill:#ffe4e6;" d="M293.786,293.938c1.633-4.666,2.617-9.536,3.568-14.377c0.935-4.756,1.955-9.465,3.165-14.159
			c0.579-2.246,1.158-4.595,1.396-6.954c-2.373-0.422-4.765-0.59-7.175-0.544c-4.294,0.083-8.534,0.938-12.573,2.385
			c-2.042,0.732-4.049,1.619-5.924,2.712c-1.691,0.987-3.279,2.177-4.827,3.381c0.486,0.116,0.973,0.232,1.454,0.369
			c5.207,1.482,10.189,4.086,13.395,8.578c1.419,1.988,2.395,4.282,2.757,6.7c0.416,2.777-0.132,5.607-1.172,8.188
			c-2.215,5.501-6.773,9.589-10.856,13.709c-4.493,4.533-9.005,9.048-13.505,13.575c-0.615,0.618-1.223,1.244-1.835,1.865
			c0.133,0.034,0.251,0.101,0.352,0.191c2.238-1.494,4.822-2.482,7.342-3.367c3.4-1.194,6.939-2.138,10.14-3.828
			C286.671,308.575,291.168,301.421,293.786,293.938z"/>
		<path style="fill:#ffe4e6;" d="M301.704,253.127c-0.864-3.966-3.625-6.904-6.635-9.443c-3.024-2.55-6.265-4.797-8.818-7.856
			c-1.285-1.539-2.341-3.263-2.999-5.112c-0.058,0.244-0.122,0.486-0.18,0.729c-0.483-0.028-0.64,0.646-0.725,1.017
			c-0.114,0.502-0.229,1.003-0.342,1.505c-0.105,0.468-0.21,0.938-0.301,1.409c-0.055,0.285-0.078,0.57-0.099,0.854
			c-0.001,0.002-0.002,0.002-0.003,0.004c-0.369,0.628-0.49,1.318-0.658,2.02c-0.173,0.723-0.355,1.443-0.548,2.161
			c-0.384,1.436-0.807,2.861-1.267,4.274c-0.448,1.376-0.931,2.74-1.45,4.091c-0.266,0.692-0.534,1.384-0.797,2.078
			c-0.259,0.682-0.364,1.4-0.59,2.085c-0.764,2.261-1.569,4.507-2.434,6.731c-0.69,1.775-1.464,3.506-2.242,5.239
			c1.466-1.306,3.072-2.43,4.738-3.488c7.592-4.82,16.818-6.655,25.679-5.172C302.027,255.204,301.929,254.16,301.704,253.127z"/>
		<path style="fill:#ffe4e6;" d="M335.607,262.556c-6.314-3.609-12.791-6.89-19.347-10.034c-5.965-2.861-11.962-5.65-17.811-8.739
			c0.545,0.521,1.077,1.057,1.576,1.628c2.341,2.679,3.747,5.808,4.086,9.263c4.714,4.778,6.55,11.702,9.46,17.591
			c2.776,5.618,5.885,11.106,10.004,15.864c4.12,4.758,9.18,8.739,14.995,11.206c2.886,1.224,5.951,2.021,9.071,2.331
			c3.407,0.339,6.852,0.077,10.253-0.2c5.935-0.483,12.102-1.02,17.836,0.728c-2.463-5.479-5.682-10.565-9.507-15.217
			C357.842,276.784,346.987,269.061,335.607,262.556z"/>
		<path style="fill:#ffe4e6;" d="M375.641,292.54c-1.85-7.343-4.705-14.436-8.499-20.991c-3.797-6.561-8.496-12.572-13.987-17.8
			c-0.105-0.1-0.168-0.209-0.223-0.319c-5.054,1.366-10.307,0.912-15.339-0.387c-5.394-1.392-10.544-3.57-15.906-5.071
			c-2.817-0.789-5.672-1.303-8.574-1.653c-2.919-0.352-5.851-0.617-8.741-1.17c5.17,2.26,10.282,4.659,15.382,7.063
			c12.931,6.094,25.71,12.678,36.712,21.926c8.611,7.238,16.208,16.117,20.906,26.41c-0.115-0.634-0.226-1.27-0.347-1.903
			C376.633,296.597,376.15,294.561,375.641,292.54z"/>
		<path style="fill:#ffe4e6;" d="M374.212,225.374c-4.421-1.639-8.984-2.804-13.627-3.611c-2.291-0.398-4.601-0.69-6.917-0.887
			c-1.2-0.102-2.402-0.17-3.606-0.209c-0.602-0.02-1.205-0.032-1.808-0.037c-0.255-0.002-0.478-0.037-0.699-0.085
			c-8.288,4.969-17.431,8.356-26.955,9.93c0.199,0.315,0.365,0.658,0.54,0.989c0.343,0.648,0.668,1.307,0.957,1.981
			c0.569,1.328,0.988,2.68,1.344,4.078c0.715,2.799,0.88,5.663,0.548,8.527c-0.047,0.408-0.649,0.322-0.688-0.048
			c-0.287-2.708-0.865-5.388-1.685-7.985c-0.406-1.287-0.943-2.56-1.514-3.783c-0.28-0.599-0.576-1.192-0.893-1.772
			c-0.291-0.532-0.679-1.052-0.815-1.644c-0.155,0.021-0.308,0.052-0.464,0.072c-5.688,0.729-11.427,0.86-17.142,0.391
			c-5.381-0.441-10.815-1.355-15.903-3.212c0.264,0.562,0.541,1.118,0.844,1.656c2.175,3.875,5.273,7.315,9.023,9.716
			c1.896,1.214,3.926,2.214,6.08,2.877c2.747,0.846,5.603,1.249,8.451,1.568c2.82,0.316,5.654,0.569,8.448,1.08
			c2.618,0.478,5.181,1.211,7.712,2.024c5.069,1.628,10.057,3.621,15.303,4.627c4.962,0.951,9.919,0.718,14.59-1.304
			c4.271-1.848,7.988-4.823,11.292-8.055c3.918-3.833,7.398-8.087,11.339-11.897c0.829-0.801,1.688-1.569,2.561-2.32
			c-0.913-0.389-1.807-0.828-2.717-1.222C376.624,226.306,375.424,225.823,374.212,225.374z"/>
		<path style="fill:#ffe4e6;" d="M396.248,213.219c-4.112-3.19-9.066-5.557-14.002-7.178c-0.003-0.002-0.006-0.004-0.01-0.006
			c-0.241-0.134-0.485-0.245-0.731-0.336c-0.144-0.116-0.264-0.254-0.34-0.419c-0.133,0.052-0.262,0.117-0.396,0.167
			c-0.023,0.009-0.048,0.016-0.071,0.025c-1.448-0.3-2.956-0.047-4.458,0.188c-2.296,0.36-4.592,0.712-6.889,1.067
			c-1.148,0.178-2.296,0.356-3.443,0.539c-0.742,0.118-1.508,0.192-2.235,0.391c-0.126-0.014-0.253-0.019-0.378-0.035
			c-0.028,0.01-0.048,0.034-0.078,0.04c-0.06,0.012-0.12,0.024-0.18,0.036c0,0.006,0.003,0.01,0.003,0.016
			c-0.002,0.065-0.013,0.118-0.021,0.174c-0.057,0.024-0.117,0.038-0.173,0.065c-0.885,0.422-1.509,1.003-2.005,1.848
			c-0.243,0.413-0.437,0.882-0.671,1.321c-3.054,2.778-6.314,5.325-9.759,7.6c0.143,0.009,0.287,0.018,0.428,0.024
			c1.334,0.06,2.668,0.154,3.998,0.281c4.793,0.458,9.566,1.409,14.152,2.882c2.244,0.721,4.465,1.481,6.646,2.377
			c2.01,0.826,4.134,1.679,5.985,2.854c2.738-2.241,5.665-4.245,8.798-5.91c2.064-1.096,4.457-1.864,6.27-3.375
			c0.68-0.567,1.353-1.359,1.262-2.302C397.853,214.536,397.006,213.808,396.248,213.219z"/>
		<path style="fill:#ffe4e6;" d="M382.422,202.392c6.134-2.804,11.428-7.186,15.805-12.288c-0.104,0.065-0.202,0.135-0.307,0.199
			c-6.51,3.93-14.022,6.201-21.621,6.515c-8.092,0.334-16.248-1.593-23.369-5.442c-3.639-1.967-6.96-4.446-9.963-7.284
			c-3-2.835-5.701-5.955-8.524-8.961c-2.85-3.033-5.866-5.878-9.22-8.35c-3.301-2.434-6.872-4.506-10.605-6.203
			c-3.745-1.702-7.683-3.041-11.705-3.915c-1.917-0.416-4.097-0.674-6.086-0.272c0.904,0.121,1.796,0.284,2.662,0.579
			c8.013,2.733,14.111,8.985,20.051,14.738c6.521,6.317,12.797,12.874,19.266,19.243c5.747,5.658,12.153,11.253,20.05,13.569
			C366.647,206.805,375.099,205.74,382.422,202.392z"/>
		<path style="fill:#ffe4e6;" d="M435.094,188.951c-6.143-0.113-12.232,0.52-18.2,1.981c-5.837,1.429-11.489,3.594-16.944,6.097
			c-2.741,1.257-5.439,2.604-8.116,3.994c-1.354,0.703-2.705,1.413-4.053,2.128c-0.198,0.105-0.395,0.211-0.591,0.317
			c5.827,1.027,11.624,2.27,17.523,2.815c5.984,0.553,11.95,0.23,17.8-1.177c5.793-1.393,11.359-3.561,16.909-5.698
			c7.202-2.773,14.711-5.546,22.398-6.532c-2.734-0.656-5.475-1.284-8.242-1.813C447.483,189.896,441.305,189.065,435.094,188.951z"
			/>
		<path style="fill:#ffe4e6;" d="M407.933,184.978c-1.477,0.824-2.87,1.783-4.181,2.85c-0.981,0.799-2.045,1.659-2.828,2.694
			c-0.087,0.029-0.175,0.058-0.263,0.063c-0.268,0.328-0.526,0.664-0.802,0.985c-2.446,2.854-5.199,5.471-8.202,7.75
			c0.192-0.104,0.381-0.213,0.574-0.317c3.028-1.632,6.091-3.201,9.212-4.648c5.481-2.542,11.167-4.739,17.085-6.024
			c6.127-1.33,12.394-1.76,18.652-1.482c6.371,0.282,12.691,1.22,18.934,2.494c2.156,0.44,4.307,0.919,6.456,1.415
			c-2.169-1.062-4.288-2.214-6.403-3.384c-4.847-2.68-9.709-5.473-15.06-7.028c-4.601-1.337-9.414-1.799-14.188-1.439
			c-6.051,0.456-12.009,2.237-17.301,5.2C409.049,184.382,408.486,184.669,407.933,184.978z"/>
		<path style="fill:#ffe4e6;" d="M376.102,133.157c-0.422-0.139-0.802-0.286-1.247-0.196c-0.043,0.009-0.055,0.044-0.073,0.074
			c-0.404-0.05-0.805-0.11-1.211-0.151c0.635,0.429,1.337,0.739,2.082,0.884c0.084,0.033,0.168,0.066,0.253,0.1
			c0.453,0.183,0.899,0.379,1.348,0.57c0.867,0.369,1.727,0.76,2.593,1.133c0.671,0.288,1.347,0.568,2.021,0.851
			c0.626,0.338,1.243,0.693,1.846,1.071c2.854,1.79,5.44,3.969,7.637,6.525c2.221,2.584,4.192,5.563,4.754,8.983
			c0.321,1.951,0.023,3.839-0.648,5.61c2.981-1.758,6.237-2.866,9.713-3.286c3.407-0.411,7.192-0.291,10.532,0.801
			c-0.097-0.212-0.181-0.427-0.298-0.637c-1.571-2.804-4.143-4.927-6.592-6.938c-9.286-7.625-20.463-13.429-32.394-15.292
			C376.312,133.225,376.207,133.192,376.102,133.157z"/>
	</g>
</g>
</svg>
